<?xml version="1.0" encoding="UTF-8" standalone="no"?>
<!-- Created with Inkscape (http://www.inkscape.org/) -->

<svg
   xmlns:dc="http://purl.org/dc/elements/1.1/"
   xmlns:cc="http://creativecommons.org/ns#"
   xmlns:rdf="http://www.w3.org/1999/02/22-rdf-syntax-ns#"
   xmlns:svg="http://www.w3.org/2000/svg"
   xmlns="http://www.w3.org/2000/svg"
   xmlns:sodipodi="http://sodipodi.sourceforge.net/DTD/sodipodi-0.dtd"
   xmlns:inkscape="http://www.inkscape.org/namespaces/inkscape"
   width="72"
   height="72"
   viewBox="0 0 72 72"
   id="svg2"
   version="1.1"
   inkscape:version="0.91 r13725"
   sodipodi:docname="ic_launcher.svg"
   inkscape:export-filename="C:\Users\Andrew\AndroidStudioProjects\MeteoStation2\app\src\main\res\mipmap-hdpi\ic_launcher.png"
   inkscape:export-xdpi="103.62378"
   inkscape:export-ydpi="103.62378">
  <defs
     id="defs4">
    <marker
       inkscape:stockid="StopS"
       orient="auto"
       refY="0"
       refX="0"
       id="StopS"
       style="overflow:visible"
       inkscape:isstock="true">
      <path
         id="path4331"
         d="M 0,5.65 0,-5.65"
         style="fill:#f2f2f2;fill-opacity:1;fill-rule:evenodd;stroke:#13b5f6;stroke-width:1pt;stroke-opacity:1"
         transform="scale(0.2,0.2)"
         inkscape:connector-curvature="0" />
    </marker>
    <marker
       style="overflow:visible"
       inkscape:stockid="InfiniteLineStart"
       id="InfiniteLineStart"
       refX="0"
       refY="0"
       orient="auto"
       inkscape:isstock="true">
      <g
         id="g4400"
         style="fill:#f2f2f2;fill-opacity:1;stroke:#13b5f6;stroke-opacity:1"
         transform="translate(-13,0)">
        <circle
           id="circle4402"
           r="0.80000001"
           cy="0"
           cx="3"
           style="fill:#f2f2f2;fill-opacity:1;stroke:#13b5f6;stroke-opacity:1" />
        <circle
           id="circle4404"
           r="0.80000001"
           cy="0"
           cx="6.5"
           style="fill:#f2f2f2;fill-opacity:1;stroke:#13b5f6;stroke-opacity:1" />
        <circle
           id="circle4406"
           r="0.80000001"
           cy="0"
           cx="10"
           style="fill:#f2f2f2;fill-opacity:1;stroke:#13b5f6;stroke-opacity:1" />
      </g>
    </marker>
    <marker
       inkscape:stockid="Scissors"
       orient="auto"
       refY="0"
       refX="0"
       id="Scissors"
       style="overflow:visible"
       inkscape:isstock="true">
      <path
         id="schere"
         d="M 9.0898857,-3.6061018 C 8.1198849,-4.7769976 6.3697607,-4.7358294 5.0623558,-4.2327734 l -8.2124046,3.0779029 c -2.3882933,-1.3067135 -4.7482873,-0.9325372 -4.7482873,-1.5687873 0,-0.4973164 0.4566662,-0.3883222 0.3883068,-1.6831941 -0.065635,-1.2432767 -1.3635771,-2.1630796 -2.5903987,-2.0816435 -1.227271,-0.00735 -2.499439,0.9331613 -2.510341,2.2300611 -0.09143,1.3063864 1.007209,2.5196896 2.306764,2.6052316 1.5223406,0.2266616 4.218258,-0.6955566 5.482945,1.57086006 -0.9422847,1.73825774 -2.6140244,1.74307674 -4.1255107,1.65607034 -1.2548743,-0.072235 -2.7620933,0.2873979 -3.3606483,1.5208605 -0.578367,1.1820862 -0.0112,2.8646022 1.316749,3.226412 1.3401912,0.4918277 3.1806689,-0.129711 3.4993722,-1.6707242 0.2456585,-1.187823 -0.5953659,-1.7459574 -0.2725074,-2.1771537 0.2436135,-0.32536 1.7907806,-0.1368452 4.5471053,-1.3748244 L 5.6763468,4.2330688 C 6.8000164,4.5467672 8.1730685,4.5362646 9.1684433,3.4313614 L -0.05164093,-0.05372222 9.0898857,-3.6061018 Z m -18.3078016,-1.900504 c 1.294559,0.7227998 1.1888392,2.6835702 -0.1564272,3.0632889 -1.2165179,0.423661 -2.7710269,-0.7589694 -2.3831779,-2.0774648 0.227148,-1.0818519 1.653387,-1.480632 2.5396051,-0.9858241 z m 0.056264,8.0173649 c 1.3508301,0.4988648 1.1214429,2.7844356 -0.2522207,3.091609 -0.9110594,0.3163391 -2.2135494,-0.1387976 -2.3056964,-1.2121394 -0.177609,-1.305055 1.356085,-2.4841482 2.5579171,-1.8794696 z"
         style="fill:#f2f2f2;fill-opacity:1;stroke:#13b5f6;stroke-opacity:1"
         inkscape:connector-curvature="0" />
    </marker>
    <marker
       inkscape:stockid="Arrow1Lstart"
       orient="auto"
       refY="0"
       refX="0"
       id="marker4548"
       style="overflow:visible"
       inkscape:isstock="true">
      <path
         id="path4550"
         d="M 0,0 5,-5 -12.5,0 5,5 0,0 Z"
         style="fill:#f2f2f2;fill-opacity:1;fill-rule:evenodd;stroke:#13b5f6;stroke-width:1pt;stroke-opacity:1"
         transform="matrix(0.8,0,0,0.8,10,0)"
         inkscape:connector-curvature="0" />
    </marker>
    <marker
       inkscape:stockid="Arrow1Sstart"
       orient="auto"
       refY="0"
       refX="0"
       id="Arrow1Sstart"
       style="overflow:visible"
       inkscape:isstock="true">
      <path
         id="path4168"
         d="M 0,0 5,-5 -12.5,0 5,5 0,0 Z"
         style="fill:#f2f2f2;fill-opacity:1;fill-rule:evenodd;stroke:#13b5f6;stroke-width:1pt;stroke-opacity:1"
         transform="matrix(0.2,0,0,0.2,1.2,0)"
         inkscape:connector-curvature="0" />
    </marker>
    <marker
       inkscape:stockid="Arrow1Send"
       orient="auto"
       refY="0"
       refX="0"
       id="Arrow1Send"
       style="overflow:visible"
       inkscape:isstock="true">
      <path
         id="path4171"
         d="M 0,0 5,-5 -12.5,0 5,5 0,0 Z"
         style="fill:#f2f2f2;fill-opacity:1;fill-rule:evenodd;stroke:#13b5f6;stroke-width:1pt;stroke-opacity:1"
         transform="matrix(-0.2,0,0,-0.2,-1.2,0)"
         inkscape:connector-curvature="0" />
    </marker>
    <marker
       inkscape:stockid="Arrow1Lstart"
       orient="auto"
       refY="0"
       refX="0"
       id="marker4432"
       style="overflow:visible"
       inkscape:isstock="true">
      <path
         id="path4434"
         d="M 0,0 5,-5 -12.5,0 5,5 0,0 Z"
         style="fill:#f2f2f2;fill-opacity:1;fill-rule:evenodd;stroke:#13b5f6;stroke-width:1pt;stroke-opacity:1"
         transform="matrix(0.8,0,0,0.8,10,0)"
         inkscape:connector-curvature="0" />
    </marker>
    <marker
       inkscape:stockid="Arrow1Lstart"
       orient="auto"
       refY="0"
       refX="0"
       id="Arrow1Lstart"
       style="overflow:visible"
       inkscape:isstock="true">
      <path
         id="path4156"
         d="M 0,0 5,-5 -12.5,0 5,5 0,0 Z"
         style="fill:#f2f2f2;fill-opacity:1;fill-rule:evenodd;stroke:#13b5f6;stroke-width:1pt;stroke-opacity:1"
         transform="matrix(0.8,0,0,0.8,10,0)"
         inkscape:connector-curvature="0" />
    </marker>
    <pattern
       y="0"
       x="0"
       height="6"
       width="6"
       patternUnits="userSpaceOnUse"
       id="EMFhbasepattern" />
    <pattern
       y="0"
       x="0"
       height="6"
       width="6"
       patternUnits="userSpaceOnUse"
       id="EMFhbasepattern-2" />
  </defs>
  <sodipodi:namedview
     id="base"
     pagecolor="#ffffff"
     bordercolor="#666666"
     borderopacity="1.0"
     inkscape:pageopacity="0.0"
     inkscape:pageshadow="2"
     inkscape:zoom="5.6"
     inkscape:cx="57.363802"
     inkscape:cy="34.145553"
     inkscape:document-units="px"
     inkscape:current-layer="layer1"
     showgrid="true"
     inkscape:snap-grids="true"
     inkscape:snap-page="false"
     showguides="true"
     inkscape:guide-bbox="true"
     units="px"
     inkscape:window-width="1366"
     inkscape:window-height="705"
     inkscape:window-x="1272"
     inkscape:window-y="-8"
     inkscape:window-maximized="1"
     borderlayer="false"
     showborder="true"
     fit-margin-top="-2.7755576e-017"
     fit-margin-bottom="-0.1">
    <inkscape:grid
       type="xygrid"
       id="grid3346"
       dotted="true"
       empspacing="1" />
  </sodipodi:namedview>
  <metadata
     id="metadata7">
    <rdf:RDF>
      <cc:Work
         rdf:about="">
        <dc:format>image/svg+xml</dc:format>
        <dc:type
           rdf:resource="http://purl.org/dc/dcmitype/StillImage" />
        <dc:title></dc:title>
      </cc:Work>
    </rdf:RDF>
  </metadata>
  <g
     inkscape:label="Layer 1"
     inkscape:groupmode="layer"
     id="layer1"
     transform="translate(0,-980.3622)">
    <circle
       style="fill:#f2f2f2;fill-rule:evenodd;stroke:#13b5f6;stroke-width:5.86887455;stroke-linecap:square;stroke-linejoin:bevel;stroke-miterlimit:4;stroke-dasharray:none;stroke-dashoffset:69.70046234;stroke-opacity:1"
       id="path3348"
       cx="36.244732"
       cy="1016.6583"
       r="28.658205" />
    <flowRoot
       xml:space="preserve"
       id="flowRoot4892"
       style="font-style:normal;font-weight:normal;font-size:40px;line-height:125%;font-family:sans-serif;letter-spacing:0px;word-spacing:0px;fill:#000000;fill-opacity:1;stroke:none;stroke-width:1px;stroke-linecap:butt;stroke-linejoin:miter;stroke-opacity:1"
       transform="translate(0,860.36216)"><flowRegion
         id="flowRegion4894"><rect
           id="rect4896"
           width="60"
           height="85"
           x="65"
           y="62" /></flowRegion><flowPara
         id="flowPara4898"></flowPara></flowRoot>    <text
       id="text4927"
       y="998.9928 998.9928"
       x="21.823244 21.823244"
       style="font-style:normal;font-variant:normal;font-weight:400;font-size:31.85731506px;font-family:'Segoe UI Symbol';text-align:start;letter-spacing:0px;word-spacing:0px;text-anchor:start;fill:#0fadda;fill-opacity:1;stroke:none"
       xml:space="preserve"
       transform="scale(0.9721594,1.0286379)"><tspan
         id="tspan4929"
         y="998.9928 998.9928"
         x="21.823244 21.823244"
         sodipodi:role="line"><tspan
           id="tspan4931"
           style="font-style:normal;font-variant:normal;font-weight:400;font-family:'Segoe UI Symbol';fill:#0fadda;fill-opacity:1"
           dy="0 0"
           dx="0 0">🌢</tspan><tspan
           id="tspan4933"
           style="font-style:normal;font-variant:normal;font-weight:400;font-family:Calibri;fill:#0fadda;fill-opacity:1"
           dy="0 0"
           dx="0 0" /></tspan></text>
  </g>
</svg>
